<svg width="225" height="168" viewBox="0 0 225 168" fill="none" xmlns="http://www.w3.org/2000/svg">
<g clip-path="url(#clip0_75_5026)">
<path d="M224.5 147.26H0.5V147.372H224.5V147.26Z" fill="#EBEBEB"/>
<path d="M199.363 151.527H184.525V151.639H199.363V151.527Z" fill="#EBEBEB"/>
<path d="M81.7357 153.042H59.3984V153.154H81.7357V153.042Z" fill="#EBEBEB"/>
<path d="M184.077 155.69H170.848V155.802H184.077V155.69Z" fill="#EBEBEB"/>
<path d="M33.6788 154.937H24.002V155.049H33.6788V154.937Z" fill="#EBEBEB"/>
<path d="M54.8558 154.937H37.666V155.049H54.8558V154.937Z" fill="#EBEBEB"/>
<path d="M148.887 150.312H106.918V150.424H148.887V150.312Z" fill="#EBEBEB"/>
<path d="M106.681 127.27H20.1762C18.765 127.27 17.6182 126.123 17.6182 124.711V3.05916C17.6182 1.64737 18.765 0.5 20.1762 0.5H106.685C108.096 0.5 109.243 1.64737 109.243 3.05916V124.711C109.239 126.123 108.092 127.27 106.681 127.27ZM20.1762 0.612047C18.8278 0.612047 17.7302 1.71011 17.7302 3.05916V124.711C17.7302 126.06 18.8278 127.158 20.1762 127.158H106.685C108.034 127.158 109.131 126.06 109.131 124.711V3.05916C109.131 1.71011 108.034 0.612047 106.685 0.612047H20.1762Z" fill="#EBEBEB"/>
<path d="M203.583 127.27H117.074C115.663 127.27 114.516 126.123 114.516 124.711V3.05916C114.516 1.64737 115.663 0.5 117.074 0.5H203.583C204.994 0.5 206.141 1.64737 206.141 3.05916V124.711C206.141 126.123 204.994 127.27 203.583 127.27ZM117.074 0.612047C115.726 0.612047 114.628 1.71011 114.628 3.05916V124.711C114.628 126.06 115.726 127.158 117.074 127.158H203.583C204.931 127.158 206.029 126.06 206.029 124.711V3.05916C206.029 1.71011 204.931 0.612047 203.583 0.612047H117.074Z" fill="#EBEBEB"/>
<path d="M60.0612 144.721H65.8896L65.8896 71.3839H60.0612L60.0612 144.721Z" fill="#F0F0F0"/>
<path d="M32.0557 147.249H64.3521V144.717H32.0557V147.249Z" fill="#F0F0F0"/>
<path d="M60.0616 71.3811H30.5205V144.718H60.0616V71.3811Z" fill="#FAFAFA"/>
<path d="M56.9122 109.571H33.6699V122.667H56.9122V109.571Z" fill="#F0F0F0"/>
<path d="M56.9122 126.71H33.6699V139.806H56.9122V126.71Z" fill="#F0F0F0"/>
<path d="M42.0433 111.028H48.5393C48.9291 111.028 49.2471 110.71 49.2471 110.32V109.939C49.2471 109.549 48.9291 109.231 48.5393 109.231H42.0433C41.6535 109.231 41.3354 109.549 41.3354 109.939V110.32C41.3354 110.705 41.6535 111.028 42.0433 111.028Z" fill="#FAFAFA"/>
<path d="M42.0433 128.167H48.5393C48.9291 128.167 49.2471 127.849 49.2471 127.459V127.078C49.2471 126.688 48.9291 126.37 48.5393 126.37H42.0433C41.6535 126.37 41.3354 126.688 41.3354 127.078V127.459C41.3354 127.849 41.6535 128.167 42.0433 128.167Z" fill="#FAFAFA"/>
<path d="M56.9122 75.4238H33.6699V88.5199H56.9122V75.4238Z" fill="#F0F0F0"/>
<path d="M56.9122 92.4326H33.6699V105.529H56.9122V92.4326Z" fill="#F0F0F0"/>
<path d="M42.0433 76.8804H48.5393C48.9291 76.8804 49.2471 76.5622 49.2471 76.1723V75.7958C49.2471 75.4059 48.9291 75.0876 48.5393 75.0876H42.0433C41.6535 75.0876 41.3354 75.4059 41.3354 75.7958V76.1768C41.3354 76.5622 41.6535 76.8804 42.0433 76.8804Z" fill="#FAFAFA"/>
<path d="M42.0433 93.8846H48.5393C48.9291 93.8846 49.2471 93.5664 49.2471 93.1765V92.7955C49.2471 92.4056 48.9291 92.0874 48.5393 92.0874H42.0433C41.6535 92.0874 41.3354 92.4056 41.3354 92.7955V93.1765C41.3354 93.5664 41.6535 93.8846 42.0433 93.8846Z" fill="#FAFAFA"/>
<path d="M92.3873 144.721H102.033L102.033 71.3839H92.3873L92.3873 144.721Z" fill="#F0F0F0"/>
<path d="M64.3852 147.249H100.243V144.717H64.3852V147.249Z" fill="#F0F0F0"/>
<path d="M92.3893 71.3811H62.8481V144.718H92.3893V71.3811Z" fill="#FAFAFA"/>
<path d="M89.2398 109.571H65.9976V122.667H89.2398V109.571Z" fill="#F0F0F0"/>
<path d="M89.2398 126.71H65.9976V139.806H89.2398V126.71Z" fill="#F0F0F0"/>
<path d="M74.3709 111.028H80.8669C81.2567 111.028 81.5748 110.71 81.5748 110.32V109.939C81.5748 109.549 81.2567 109.231 80.8669 109.231H74.3709C73.9812 109.231 73.6631 109.549 73.6631 109.939V110.32C73.6631 110.705 73.9812 111.028 74.3709 111.028Z" fill="#FAFAFA"/>
<path d="M74.3709 128.167H80.8669C81.2567 128.167 81.5748 127.849 81.5748 127.459V127.078C81.5748 126.688 81.2567 126.37 80.8669 126.37H74.3709C73.9812 126.37 73.6631 126.688 73.6631 127.078V127.459C73.6631 127.849 73.9812 128.167 74.3709 128.167Z" fill="#FAFAFA"/>
<path d="M89.2398 75.4238H65.9976V88.5199H89.2398V75.4238Z" fill="#F0F0F0"/>
<path d="M89.2398 92.4326H65.9976V105.529H89.2398V92.4326Z" fill="#F0F0F0"/>
<path d="M74.3709 76.8804H80.8669C81.2567 76.8804 81.5748 76.5622 81.5748 76.1723V75.7958C81.5748 75.4059 81.2567 75.0876 80.8669 75.0876H74.3709C73.9812 75.0876 73.6631 75.4059 73.6631 75.7958V76.1768C73.6631 76.5622 73.9812 76.8804 74.3709 76.8804Z" fill="#FAFAFA"/>
<path d="M74.3709 93.8846H80.8669C81.2567 93.8846 81.5748 93.5664 81.5748 93.1765V92.7955C81.5748 92.4056 81.2567 92.0874 80.8669 92.0874H74.3709C73.9812 92.0874 73.6631 92.4056 73.6631 92.7955V93.1765C73.6631 93.5664 73.9812 93.8846 74.3709 93.8846Z" fill="#FAFAFA"/>
<path d="M29.6274 47.9282L105.416 47.9282V16.2591L29.6274 16.2591V47.9282Z" fill="#E6E6E6"/>
<path d="M26.3674 47.9282L104.548 47.9282V16.2591L26.3674 16.2591V47.9282Z" fill="#F0F0F0"/>
<path d="M100.416 43.7934V20.3889L30.4962 20.3889V43.7934L100.416 43.7934Z" fill="#FAFAFA"/>
<path d="M66.172 43.7951L59.228 20.3906H49.8604L56.8044 43.7951H66.172Z" fill="white"/>
<path d="M91.8293 43.7951L84.8853 20.3906H75.5176L82.4616 43.7951H91.8293Z" fill="white"/>
<path d="M55.0348 43.7951L48.0908 20.3906H38.7231L45.6671 43.7951H55.0348Z" fill="white"/>
<path d="M171.95 7.63965H130.187V73.4205H171.95V7.63965Z" fill="#EBEBEB"/>
<path d="M168.991 70.4642V10.595L133.142 10.595V70.4642H168.991Z" fill="#FAFAFA"/>
<path d="M149.957 70.4624H148.752L152.184 10.5349H153.384L149.957 70.4624Z" fill="#E0E0E0"/>
<path d="M152.202 23.9715V25.6971L168.993 21.269V20.6594L152.202 23.9715Z" fill="#E0E0E0"/>
<path d="M151.068 43.6114V45.337L168.993 38.2421V37.6326L151.068 43.6114Z" fill="#E0E0E0"/>
<path d="M149.518 63.883V66.2718L168.993 55.4928V54.8833L149.518 63.883Z" fill="#E0E0E0"/>
<path d="M151.516 32.8233V34.5489L133.592 27.454V26.8445L151.516 32.8233Z" fill="#E0E0E0"/>
<path d="M150.065 53.6911V56.0755L133.592 47.2775V46.668L150.065 53.6911Z" fill="#E0E0E0"/>
<path d="M133.589 70.4654V10.5962H133.146V70.4654H133.589Z" fill="#E0E0E0"/>
<path d="M171.948 73.4209H173.323V7.64008H171.948V73.4209Z" fill="#E0E0E0"/>
<path d="M188.369 68.5936C188.369 65.8686 189.426 61.7766 189.426 61.7766H185.237H181.048C181.048 61.7766 182.106 65.8686 182.106 68.5936C182.106 71.3186 178.791 76.2173 178.791 80.121C178.791 84.0248 182.133 88.8921 182.133 88.8921H185.233H188.333C188.333 88.8921 191.675 84.0292 191.675 80.121C191.679 76.2128 188.369 71.3186 188.369 68.5936Z" fill="#E0E0E0"/>
<path d="M193.74 72.4167C193.74 70.2026 194.144 66.886 194.144 66.886H192.558H190.972C190.972 66.886 191.375 70.2071 191.375 72.4167C191.375 74.6307 190.121 78.6017 190.121 81.7704C190.121 84.9391 191.388 88.8876 191.388 88.8876H192.562H193.736C193.736 88.8876 195.004 84.9391 195.004 81.7704C194.995 78.6062 193.74 74.6307 193.74 72.4167Z" fill="#F0F0F0"/>
<path d="M116.244 147.259H121.006L121.006 88.8908H116.244V147.259Z" fill="#E6E6E6"/>
<path d="M114.968 147.259H117.772L117.772 88.8908H114.968V147.259Z" fill="#F0F0F0"/>
<path d="M181.729 88.8877H114.099V91.8771H181.729V88.8877Z" fill="#F0F0F0"/>
<path d="M204.689 147.259H209.451V88.8908H204.689V147.259Z" fill="#E6E6E6"/>
<path d="M203.795 147.259H206.6V88.8908H203.795V147.259Z" fill="#F0F0F0"/>
<path d="M210.303 88.8877H183.768V91.8771H210.303V88.8877Z" fill="#E6E6E6"/>
<path d="M182.134 147.259H186.896V88.8908H182.134V147.259Z" fill="#E6E6E6"/>
<path d="M180.858 147.259H183.663V88.8908H180.858V147.259Z" fill="#F0F0F0"/>
<path d="M115.797 88.8877L147.914 108.187L180.031 88.8877H115.797Z" fill="#FAFAFA"/>
<path d="M118.794 88.8877L147.914 106.385L177.034 88.8877H118.794Z" fill="#EBEBEB"/>
<path d="M186.057 88.8877L197.602 106.385L209.151 88.8877H186.057Z" fill="#FAFAFA"/>
<path d="M187.432 88.8877L197.902 104.583L208.372 88.8877H187.432Z" fill="#EBEBEB"/>
<path d="M112.5 167.5C160.473 167.5 199.363 165.229 199.363 162.427C199.363 159.625 160.473 157.353 112.5 157.353C64.527 157.353 25.6372 159.625 25.6372 162.427C25.6372 165.229 64.527 167.5 112.5 167.5Z" fill="#F5F5F5"/>
<path d="M90.8928 158.294L87.2954 157.111L89.074 148.452L92.6759 149.635L90.8928 158.294Z" fill="#FFB573"/>
<path d="M122.226 158.339H118.432L117.491 149.554H121.281L122.226 158.339Z" fill="#FFB573"/>
<path d="M118.122 157.9H122.746C122.903 157.9 123.037 158.007 123.068 158.16L123.816 161.53C123.893 161.88 123.619 162.211 123.261 162.202C121.774 162.175 120.689 162.09 118.817 162.09C117.665 162.09 114.189 162.211 112.599 162.211C111.044 162.211 110.798 160.638 111.452 160.495C114.373 159.854 116.572 158.975 117.509 158.133C117.674 157.98 117.894 157.9 118.122 157.9Z" fill="#263238"/>
<path d="M87.3582 156.542L91.3499 157.644C91.4977 157.685 91.6008 157.824 91.5918 157.98L91.4171 161.432C91.3992 161.79 91.0542 162.037 90.7137 161.938C89.2801 161.517 87.2238 160.858 85.4139 160.36C83.2993 159.778 82.9051 159.576 80.4232 158.89C78.9224 158.478 78.9224 156.842 79.5899 156.878C82.6228 157.039 83.5099 157.429 86.3995 156.587C86.7131 156.492 87.0401 156.452 87.3582 156.542Z" fill="#263238"/>
<path d="M106.031 43.1094C105.789 43.4276 105.601 43.6561 105.386 43.9206C105.18 44.176 104.965 44.4226 104.75 44.6646C104.32 45.1531 103.881 45.6282 103.428 46.0943C102.532 47.0355 101.574 47.9184 100.561 48.7655C98.5271 50.4373 96.2737 51.9835 93.505 52.9606C92.8151 53.2026 92.0849 53.3953 91.3233 53.5208C91.1306 53.5522 90.9425 53.5835 90.7498 53.606L90.1585 53.6597C89.9972 53.6822 89.6881 53.6822 89.4148 53.6777C89.1639 53.6597 88.9041 53.6373 88.6845 53.597C87.7796 53.4446 87.0673 53.1667 86.3997 52.8799C85.7367 52.5931 85.1364 52.2704 84.5629 51.9252C83.4161 51.244 82.3722 50.4955 81.3777 49.6977C80.3786 48.9 79.4557 48.0708 78.5508 47.1431L80.2711 44.8707C82.3767 45.9195 84.5271 47.0176 86.5879 47.8153C87.1031 48.0081 87.6093 48.1829 88.0842 48.3173C88.5546 48.4518 89.0161 48.5235 89.3162 48.528C89.3924 48.5325 89.4417 48.519 89.4909 48.519C89.5223 48.5056 89.5178 48.51 89.6567 48.4831L89.9703 48.4294L90.2929 48.3532C90.5034 48.3128 90.7274 48.2232 90.9425 48.1605C91.162 48.0708 91.3815 48.0036 91.6055 47.9005C92.497 47.533 93.393 47.0176 94.2621 46.408C95.1402 45.8164 95.9959 45.1262 96.8292 44.3912C97.6669 43.6606 98.4689 42.8718 99.2573 42.0651C99.6516 41.6572 100.037 41.2449 100.409 40.8236L100.964 40.1916L101.475 39.5911L106.031 43.1094Z" fill="#FFB573"/>
<path d="M108.114 41.2314C108.397 44.8483 100.256 52.2255 100.256 52.2255L93.0615 45.9823C93.0615 45.9823 96.09 42.7732 99.4948 39.5463C101.833 37.3232 107.81 37.3232 108.114 41.2314Z" fill="white"/>
<path d="M108.114 41.2314C108.397 44.8483 100.256 52.2255 100.256 52.2255L93.0615 45.9823C93.0615 45.9823 96.09 42.7732 99.4948 39.5463C101.833 37.3232 107.81 37.3232 108.114 41.2314Z" fill="#A51D43"/>
<path opacity="0.2" d="M104.445 43.0913C101.099 43.3961 98.9618 46.0852 98.0299 49.0567C97.9269 49.3884 97.8373 49.729 97.7656 50.0652L100.257 52.2254C100.257 52.2254 103.957 48.8685 106.282 45.5743C106.399 44.0146 105.955 42.9569 104.445 43.0913Z" fill="black"/>
<path d="M81.1535 46.4797L79.9215 43.3513L75.7192 44.6421C75.7192 44.6421 77.1484 46.1884 78.7298 47.264L81.1535 46.4797Z" fill="#FFB573"/>
<path d="M77.8025 40.9043L74.335 42.2982L75.7193 44.6422L79.9215 43.3514L77.8025 40.9043Z" fill="#FFB573"/>
<path opacity="0.2" d="M89.0741 148.456L88.0034 153.651L91.6591 154.583L92.6761 149.64L89.0741 148.456Z" fill="black"/>
<path opacity="0.2" d="M121.281 149.559H117.491L117.979 154.086H121.769L121.281 149.559Z" fill="black"/>
<path d="M123.521 39.4835C122.351 43.674 121.603 47.9408 121.111 51.9611C120.752 54.9012 120.537 57.7024 120.403 60.2481C120.089 66.209 120.219 70.7537 120.04 72.2954C117.074 72.0893 105.905 71.3139 99.8126 70.8881C97.0574 49.3123 102.317 38.1972 102.317 38.1972C102.317 38.1972 104.557 37.749 107.16 37.5966C107.5 37.5742 107.85 37.5607 108.204 37.5562C110.493 37.5069 114.229 37.8521 116.805 38.1568C117.347 38.2196 117.894 38.3002 118.427 38.3854C121.137 38.8246 123.521 39.4835 123.521 39.4835Z" fill="white"/>
<path d="M123.521 39.4835C122.351 43.674 121.603 47.9408 121.111 51.9611C120.752 54.9012 120.537 57.7024 120.403 60.2481C120.089 66.209 120.219 70.7537 120.04 72.2954C117.074 72.0893 105.905 71.3139 99.8126 70.8881C97.0574 49.3123 102.317 38.1972 102.317 38.1972C102.317 38.1972 104.557 37.749 107.16 37.5966C107.5 37.5742 107.85 37.5607 108.204 37.5562C110.493 37.5069 114.229 37.8521 116.805 38.1568C117.347 38.2196 117.894 38.3002 118.427 38.3854C121.137 38.8246 123.521 39.4835 123.521 39.4835Z" fill="#A51D43"/>
<path opacity="0.2" d="M118.409 44.9424C118.396 48.3352 119.332 51.1991 120.914 53.709C120.972 53.1308 121.039 52.5482 121.111 51.961C121.38 49.7515 121.729 47.4657 122.19 45.1575L118.409 44.9424Z" fill="black"/>
<path d="M116.63 28.4087C115.896 31.1382 115 36.1713 116.805 38.1523C115.282 39.5148 113.096 40.6129 109.991 40.3261C107.612 40.1064 107.612 38.4347 108.204 37.5518C111.34 37.0319 111.42 34.7326 111.035 32.5455L116.63 28.4087Z" fill="#FFB573"/>
<path opacity="0.2" d="M114.35 30.0984L111.04 32.5455C111.134 33.0654 111.196 33.5853 111.196 34.0918C112.388 34.0021 114.095 32.8234 114.305 31.5953C114.413 30.9813 114.431 30.3897 114.35 30.0984Z" fill="black"/>
<path d="M110.619 24.3256C109.723 25.594 107.375 23.2589 107.46 21.1614C110.87 20.7087 109.243 18.2213 112.343 18.8577C114.915 19.3865 111.6 22.9407 110.619 24.3256Z" fill="black"/>
<path d="M119.103 25.1458C117.961 28.7313 117.477 30.8916 115.17 32.2989C111.693 34.4143 107.621 31.6131 107.666 27.7587C107.706 24.2897 109.565 19.0056 113.494 18.4543C117.365 17.9075 120.246 21.5602 119.103 25.1458Z" fill="#FFB573"/>
<path d="M116.953 28.4087C116.953 28.4087 116.64 26.8042 116.805 25.7151C116.967 24.6842 117.464 23.6803 117.464 23.6803C117.464 23.6803 115.318 22.4119 115.269 20.8836C115.269 20.8836 111.429 22.0175 109.386 20.292C107.339 18.5665 109.167 16.5675 108.119 15.8056C110.627 15.5591 111.389 17.0874 112.975 16.7558C114.503 16.4331 113.159 15.3081 113.369 14.0801C118.149 18.1989 120.228 16.2672 122.549 18.6247C124.032 20.1306 122.473 22.9587 122.473 22.9587C122.473 22.9587 124.838 26.979 116.953 28.4087Z" fill="black"/>
<path d="M121.711 22.8647C121.711 22.8647 124.058 23.3487 124.121 20.8882C125.331 23.3936 123.817 23.7656 121.711 22.8647Z" fill="black"/>
<path d="M111.12 28.5655C112.625 28.933 113.571 28.0725 113.607 28.0366C113.647 28.0008 113.647 27.938 113.611 27.9022C113.575 27.8618 113.512 27.8618 113.477 27.8977C113.468 27.9067 112.567 28.7268 111.169 28.3817C111.116 28.3683 111.066 28.3997 111.053 28.4534C111.039 28.4983 111.071 28.5521 111.12 28.5655Z" fill="#263238"/>
<path d="M119.74 29.108C119.014 29.8161 118.028 30.1209 117.195 30.094C115.941 30.0581 115.685 28.8435 116.348 27.8575C116.944 26.9656 118.311 25.9168 119.417 26.4323C120.506 26.9432 120.573 28.2967 119.74 29.108Z" fill="#FFB573"/>
<path d="M87 151.786L93.1869 153.489C93.1869 153.489 100.937 129.05 102.841 115.626C103.348 112.068 104.127 107.061 105.314 101.728C106.815 95.0051 108.701 87.74 110.242 82.048C111.868 76.0557 113.109 71.8113 113.109 71.8113L99.8128 70.8835C99.8128 70.8835 94.3696 100.684 93.0973 112.189C91.7757 124.146 87 151.786 87 151.786Z" fill="black"/>
<path opacity="0.3" d="M87 151.786L93.1869 153.489C93.1869 153.489 100.937 129.05 102.841 115.626C103.348 112.068 104.127 107.061 105.314 101.728C106.815 95.0051 108.701 87.74 110.242 82.048C111.868 76.0557 113.109 71.8113 113.109 71.8113L99.8128 70.8835C99.8128 70.8835 94.3696 100.684 93.0973 112.189C91.7757 124.146 87 151.786 87 151.786Z" fill="black"/>
<path opacity="0.2" d="M105.314 101.724C106.815 95.0007 108.701 87.7355 110.242 82.0435L108.862 79.072C105.565 82.9937 104.678 95.1307 105.314 101.724Z" fill="black"/>
<path d="M106.985 71.3811C106.985 71.3811 108.419 103.852 110.023 114.847C111.774 126.889 116.228 153.207 116.228 153.207H123.172C123.172 153.207 120.873 125.513 119.861 113.69C118.705 100.227 120.045 72.2909 120.045 72.2909L106.985 71.3811Z" fill="black"/>
<path opacity="0.3" d="M106.985 71.3811C106.985 71.3811 108.419 103.852 110.023 114.847C111.774 126.889 116.228 153.207 116.228 153.207H123.172C123.172 153.207 120.873 125.513 119.861 113.69C118.705 100.227 120.045 72.2909 120.045 72.2909L106.985 71.3811Z" fill="black"/>
<path d="M115.394 153.36H123.57V150.917L114.431 150.756L115.394 153.36Z" fill="#A51D43"/>
<path d="M86.5698 151.822L93.5586 153.749L94.5621 151.338L86.6012 149.133L86.5698 151.822Z" fill="#A51D43"/>
<path d="M113.324 24.7739C113.248 25.0697 113.033 25.2714 112.836 25.2221C112.643 25.1728 112.545 24.8949 112.621 24.5947C112.697 24.2944 112.912 24.0972 113.109 24.1465C113.302 24.1958 113.401 24.4781 113.324 24.7739Z" fill="#263238"/>
<path d="M109.973 23.9313C109.897 24.2271 109.682 24.4288 109.489 24.3795C109.297 24.3302 109.198 24.0523 109.274 23.752C109.35 23.4562 109.566 23.2545 109.763 23.3038C109.951 23.3531 110.049 23.631 109.973 23.9313Z" fill="#263238"/>
<path d="M111.004 24.3435C111.004 24.3435 109.897 25.8853 108.947 26.5262C109.35 27.1492 110.354 27.0819 110.354 27.0819L111.004 24.3435Z" fill="#ED893E"/>
<path d="M114.637 23.9493C114.57 23.9448 114.512 23.9045 114.485 23.8417C114.171 23.1022 113.521 22.9812 113.517 22.9812C113.418 22.9633 113.356 22.8691 113.374 22.7705C113.392 22.6719 113.481 22.6047 113.584 22.6271C113.62 22.6316 114.435 22.7885 114.821 23.7028C114.861 23.7924 114.816 23.9 114.727 23.9403C114.695 23.9493 114.664 23.9538 114.637 23.9493Z" fill="#263238"/>
<path d="M108.827 22.4118C108.791 22.4073 108.755 22.3939 108.724 22.3715C108.647 22.3087 108.638 22.1922 108.701 22.1205C109.342 21.3586 110.162 21.4482 110.198 21.4527C110.296 21.4661 110.368 21.5558 110.354 21.6544C110.341 21.753 110.247 21.8202 110.157 21.8112C110.13 21.8112 109.49 21.744 108.974 22.3491C108.939 22.3939 108.885 22.4163 108.827 22.4118Z" fill="#263238"/>
<path d="M116.868 158.563C116.581 158.563 116.308 158.514 116.138 158.37C116.003 158.258 115.94 158.097 115.954 157.895C115.963 157.747 116.044 157.676 116.106 157.64C116.527 157.425 117.75 158.178 117.885 158.263C117.916 158.281 117.93 158.317 117.925 158.352C117.921 158.388 117.894 158.415 117.858 158.424C117.598 158.491 117.217 158.563 116.868 158.563ZM116.303 157.779C116.259 157.779 116.218 157.788 116.187 157.801C116.164 157.815 116.133 157.837 116.129 157.909C116.12 158.052 116.16 158.16 116.25 158.236C116.456 158.411 116.953 158.433 117.594 158.303C117.172 158.052 116.595 157.779 116.303 157.779Z" fill="#A51D43"/>
<path d="M117.84 158.429C117.827 158.429 117.809 158.424 117.795 158.42C117.401 158.205 116.644 157.375 116.725 156.954C116.738 156.878 116.796 156.743 117.011 156.717C117.15 156.699 117.28 156.739 117.392 156.833C117.831 157.192 117.925 158.29 117.925 158.335C117.93 158.366 117.912 158.397 117.885 158.415C117.872 158.424 117.858 158.429 117.84 158.429ZM117.074 156.891C117.061 156.891 117.047 156.891 117.034 156.896C116.917 156.909 116.908 156.963 116.904 156.985C116.855 157.236 117.338 157.864 117.728 158.16C117.683 157.842 117.562 157.201 117.28 156.972C117.218 156.918 117.146 156.891 117.074 156.891Z" fill="#A51D43"/>
<path d="M86.8609 156.945C86.8564 156.945 86.8519 156.945 86.843 156.945C86.2202 156.9 85.1361 156.757 84.8314 156.291C84.7418 156.152 84.7239 155.995 84.7866 155.825C84.8225 155.726 84.8942 155.659 84.9927 155.632C85.499 155.511 86.7668 156.658 86.9102 156.788C86.937 156.815 86.946 156.856 86.9326 156.891C86.9236 156.923 86.8922 156.941 86.8609 156.945ZM85.0644 155.802C85.0554 155.802 85.0465 155.807 85.0375 155.807C84.9972 155.816 84.9748 155.838 84.9569 155.883C84.9166 155.999 84.9255 156.098 84.9838 156.192C85.154 156.452 85.7454 156.654 86.5876 156.743C86.0814 156.304 85.3601 155.771 85.0644 155.802Z" fill="#A51D43"/>
<path d="M86.7939 156.918C86.7895 156.914 86.785 156.909 86.785 156.905C86.4445 156.385 85.8935 155.435 86.0816 154.91C86.1354 154.753 86.2519 154.646 86.4221 154.592C86.5251 154.561 86.6192 154.574 86.6999 154.641C87.1031 154.973 86.9687 156.676 86.9507 156.869C86.9463 156.905 86.9194 156.941 86.8835 156.95C86.8477 156.954 86.8163 156.941 86.7939 156.918ZM86.6013 154.798C86.5968 154.794 86.5879 154.785 86.5834 154.78C86.552 154.753 86.5162 154.749 86.4714 154.762C86.3549 154.798 86.2832 154.87 86.2429 154.973C86.1399 155.269 86.3415 155.86 86.785 156.582C86.8298 155.91 86.8074 155.013 86.6013 154.798Z" fill="#A51D43"/>
<path d="M124.081 41.6663C124.954 42.8988 125.698 44.091 126.455 45.3325C127.212 46.5605 127.911 47.8289 128.592 49.1152C129.927 51.7012 131.155 54.368 132.015 57.3484C132.118 57.7249 132.216 58.1014 132.306 58.4913C132.351 58.684 132.396 58.8812 132.432 59.0784L132.49 59.3742L132.521 59.5266L132.557 59.7687C132.705 61.0325 132.503 61.9603 132.284 62.8029C131.818 64.4746 131.141 65.8327 130.416 67.1459C129.685 68.4501 128.888 69.6736 128.037 70.8479C127.185 72.0266 126.303 73.1426 125.317 74.2407L122.988 72.6048C124.202 70.1711 125.438 67.6747 126.388 65.2276C126.625 64.6181 126.84 64.0085 127.02 63.4124C127.208 62.8208 127.356 62.2382 127.432 61.7093C127.512 61.1939 127.504 60.7098 127.445 60.5799C127.441 60.5754 127.441 60.5664 127.436 60.5619L127.409 60.4589L127.351 60.2437C127.315 60.1003 127.275 59.9569 127.226 59.8135C127.141 59.5266 127.038 59.2308 126.939 58.9395C126.092 56.5775 124.869 54.1797 123.561 51.8402C122.907 50.6614 122.208 49.5051 121.514 48.3398C120.819 47.188 120.062 46.0182 119.359 44.9336L124.081 41.6663Z" fill="#FFB573"/>
<path d="M123.521 39.4836C127.073 40.2007 130.192 48.8956 130.192 48.8956L122.777 54.9372C122.777 54.9372 120.349 50.518 118.405 46.2557C116.281 41.608 119.216 38.6141 123.521 39.4836Z" fill="white"/>
<path d="M123.521 39.4836C127.073 40.2007 130.192 48.8956 130.192 48.8956L122.777 54.9372C122.777 54.9372 120.349 50.518 118.405 46.2557C116.281 41.608 119.216 38.6141 123.521 39.4836Z" fill="#A51D43"/>
<path d="M73.9197 51.7965L72.1289 58.2573L72.5563 58.3759L74.3471 51.915L73.9197 51.7965Z" fill="#A51D43"/>
<path d="M71.4727 60.6384L70.6982 63.4326L71.1256 63.5512L71.9001 60.7569L71.4727 60.6384Z" fill="#A51D43"/>
<path d="M71.7267 85.5013L71.7265 85.5013C69.1755 84.7953 67.664 82.1222 68.3701 79.5685C68.3701 79.5685 68.3701 79.5684 68.3701 79.5684L78.683 42.3105L78.6831 42.3103C79.3889 39.7578 82.0609 38.2462 84.613 38.9524C84.613 38.9524 84.613 38.9524 84.6131 38.9524L121.855 49.2697L121.855 49.2698C124.406 49.9758 125.918 52.6489 125.212 55.2026C125.212 55.2026 125.212 55.2026 125.212 55.2027L114.899 92.46C114.189 95.0138 111.52 96.5247 108.969 95.8186L71.7267 85.5013Z" fill="white" stroke="#EBEBEB"/>
<path d="M99.7545 58.881C99.5574 58.881 99.3602 58.8541 99.1631 58.8003C97.9849 58.4732 97.2905 57.2541 97.6175 56.0709L99.405 49.6169C99.7321 48.4382 100.955 47.7435 102.133 48.0707C103.312 48.3978 104.006 49.6169 103.679 50.8001L101.891 57.2541C101.618 58.2401 100.727 58.881 99.7545 58.881Z" fill="#A51D43"/>
<path d="M92.0353 85.8933C91.9188 85.8933 91.7978 85.8754 91.6813 85.844C90.9735 85.6468 90.5569 84.9163 90.754 84.2081L92.5415 77.7542C92.7386 77.046 93.4689 76.6337 94.1767 76.8264C94.8845 77.0236 95.3012 77.7542 95.1041 78.4623L93.3165 84.9163C93.1508 85.5079 92.6177 85.8933 92.0353 85.8933Z" fill="#A51D43"/>
<path d="M106.466 62.5695C106.233 62.5695 106.009 62.4485 105.888 62.2334C105.708 61.9151 105.82 61.5073 106.138 61.328L111.967 58.0249C112.285 57.8456 112.693 57.9576 112.872 58.2758C113.051 58.5941 112.939 59.0019 112.621 59.1812L106.793 62.4843C106.685 62.5426 106.573 62.5695 106.466 62.5695Z" fill="#A51D43"/>
<path d="M81.2878 77.7183C80.7457 77.7183 80.2215 77.4359 79.9348 76.9295C79.5137 76.1855 79.7735 75.2353 80.5217 74.814L86.3502 71.5108C87.0939 71.0895 88.0436 71.3495 88.4647 72.098C88.8859 72.842 88.626 73.7921 87.8779 74.2134L82.0494 77.5166C81.8075 77.6555 81.5431 77.7183 81.2878 77.7183Z" fill="#A51D43"/>
<path d="M113.956 73.0304C113.88 73.0304 113.799 73.0215 113.719 72.9991L107.267 71.2108C106.797 71.0808 106.519 70.5923 106.649 70.1217C106.779 69.6511 107.267 69.3732 107.738 69.5032L114.189 71.2915C114.659 71.4214 114.937 71.91 114.807 72.3806C114.704 72.7705 114.346 73.0304 113.956 73.0304Z" fill="#A51D43"/>
<path d="M86.0725 66.191C85.9157 66.191 85.7545 66.1686 85.5977 66.1282L79.1465 64.34C78.2012 64.08 77.6501 63.1029 77.91 62.1573C78.1698 61.2116 79.1465 60.6603 80.0917 60.9203L86.5429 62.7085C87.4882 62.9685 88.0393 63.9455 87.7794 64.8912C87.5644 65.6756 86.8476 66.191 86.0725 66.191Z" fill="#A51D43"/>
<path d="M105.565 84.0022C105.18 84.0022 104.804 83.8005 104.602 83.4419L101.3 77.611C101 77.0776 101.188 76.4009 101.717 76.1006C102.25 75.8003 102.926 75.9885 103.227 76.5174L106.528 82.3483C106.829 82.8817 106.64 83.5585 106.112 83.8588C105.942 83.9574 105.753 84.0022 105.565 84.0022Z" fill="#A51D43"/>
<path d="M91.3098 59.7012C90.6154 59.7012 89.9389 59.3382 89.5716 58.6883L86.2698 52.8574C85.7277 51.8982 86.0637 50.6792 87.0224 50.1369C87.9812 49.5945 89.1997 49.9307 89.7418 50.8898L93.0436 56.7208C93.5856 57.6799 93.2496 58.899 92.2909 59.4413C91.9818 59.6161 91.6413 59.7012 91.3098 59.7012Z" fill="#A51D43"/>
<path d="M124.332 71.7351L120.488 71.5962L122.351 76.0691C122.351 76.0691 125.653 75.4596 125.523 73.6713L124.332 71.7351Z" fill="#FFB573"/>
<path d="M117.912 73.4427L118.839 76.8624L122.347 76.0691L120.488 71.5962L117.912 73.4427Z" fill="#FFB573"/>
</g>
<defs>
<clipPath id="clip0_75_5026">
<rect width="224" height="167" fill="white" transform="translate(0.5 0.5)"/>
</clipPath>
</defs>
</svg>
