<svg width="23" height="24" viewBox="0 0 23 24" fill="none" xmlns="http://www.w3.org/2000/svg">
<circle cx="11.5" cy="12" r="11.5" fill="#B42D03"/>
<g clip-path="url(#clip0_118_9714)">
<path fill-rule="evenodd" clip-rule="evenodd" d="M11.5 13.1495L14.3724 16.022C14.5249 16.1744 14.7316 16.26 14.9472 16.26C15.1627 16.26 15.3694 16.1744 15.5219 16.022C15.6743 15.8696 15.7599 15.6628 15.7599 15.4473C15.7599 15.2317 15.6743 15.025 15.5219 14.8726L12.6483 12.0001L15.5213 9.12766C15.5968 9.05219 15.6566 8.9626 15.6974 8.864C15.7382 8.76541 15.7592 8.65974 15.7592 8.55303C15.7592 8.44633 15.7381 8.34067 15.6973 8.24209C15.6564 8.14352 15.5965 8.05395 15.5211 7.97852C15.4456 7.90308 15.356 7.84325 15.2574 7.80244C15.1588 7.76162 15.0531 7.74063 14.9464 7.74066C14.8397 7.74068 14.7341 7.76172 14.6355 7.80258C14.5369 7.84344 14.4473 7.90332 14.3719 7.97879L11.5 10.8512L8.62753 7.97879C8.55262 7.90115 8.46299 7.83921 8.36388 7.79658C8.26477 7.75395 8.15817 7.73149 8.05029 7.7305C7.9424 7.72951 7.83541 7.75002 7.73553 7.79083C7.63566 7.83163 7.54492 7.89192 7.46859 7.96817C7.39227 8.04443 7.3319 8.13511 7.291 8.23495C7.2501 8.33478 7.22949 8.44176 7.23037 8.54964C7.23126 8.65753 7.25362 8.76415 7.29616 8.8633C7.33869 8.96245 7.40055 9.05213 7.47811 9.12712L10.3517 12.0001L7.47866 14.8731C7.40109 14.9481 7.33924 15.0378 7.2967 15.1369C7.25417 15.2361 7.2318 15.3427 7.23092 15.4506C7.23003 15.5585 7.25064 15.6655 7.29154 15.7653C7.33244 15.8651 7.39281 15.9558 7.46913 16.0321C7.54546 16.1083 7.6362 16.1686 7.73608 16.2094C7.83595 16.2502 7.94295 16.2707 8.05083 16.2697C8.15871 16.2688 8.26532 16.2463 8.36442 16.2037C8.46353 16.161 8.55316 16.0991 8.62807 16.0215L11.5 13.1495Z" fill="white"/>
</g>
<defs>
<clipPath id="clip0_118_9714">
<rect width="13" height="13" fill="white" transform="translate(5 5.5)"/>
</clipPath>
</defs>
</svg>
