<svg width="71" height="71" viewBox="0 0 71 71" fill="none" xmlns="http://www.w3.org/2000/svg">
<rect width="71" height="71" rx="20" fill="#A51D43"/>
<path d="M41.3711 22.5114C40.9912 22.5805 36.8266 23.2919 32.1163 24.093C27.406 24.9011 23.3519 25.6194 23.1033 25.6954C22.4471 25.9026 21.8048 26.31 21.3214 26.8211C20.7965 27.3875 20.4719 27.9607 20.2301 28.7619L20.0437 29.3835L20.016 37.6713C19.9815 46.9813 19.9539 46.4979 20.4857 47.5822C20.8724 48.3695 21.6667 49.1707 22.4195 49.5367C23.4279 50.034 22.4817 49.9995 35.5005 49.9995C48.5193 49.9995 47.5731 50.034 48.5815 49.5367C49.3343 49.1707 50.1286 48.3695 50.5153 47.5822C51.0333 46.5255 51.0126 46.8708 50.9919 38.7211L50.9712 31.4554L50.7778 30.9167C50.5291 30.1984 50.1286 29.5837 49.5898 29.0796C49.0788 28.6099 48.6989 28.3682 48.0428 28.1127L47.587 27.9331L38.0766 27.8986C28.6078 27.864 28.5663 27.864 28.3729 27.719C28.2694 27.643 28.1243 27.4703 28.0552 27.3322C27.9517 27.1181 27.9447 27.056 28.0207 26.828C28.0691 26.683 28.2003 26.4965 28.3039 26.4206L28.4973 26.2755H37.9247C46.7444 26.2755 47.3452 26.2686 47.3452 26.1581C47.3452 25.8542 46.9654 24.9011 46.6684 24.4384C46.0537 23.4922 45.0177 22.7532 43.9265 22.4769C43.3809 22.3388 42.2482 22.3526 41.3711 22.5114ZM44.2925 37.0497C44.7 37.2707 44.9901 37.5677 45.218 38.0028C45.3492 38.2446 45.3769 38.4034 45.3769 38.949C45.3769 39.4946 45.3492 39.6535 45.218 39.8952C44.9901 40.3303 44.7069 40.6273 44.2925 40.8552C43.961 41.0348 43.8643 41.0555 43.2704 41.0555C42.7247 41.0555 42.5659 41.0279 42.3242 40.8967C41.8891 40.6687 41.5921 40.3856 41.3642 39.9712C41.1846 39.6397 41.1639 39.543 41.1639 38.949C41.1639 38.4034 41.1915 38.2446 41.3227 38.0028C41.5644 37.5401 41.8683 37.2431 42.3242 37.0152C42.7247 36.8149 42.7938 36.8011 43.3394 36.8218C43.8229 36.8425 43.9886 36.884 44.2925 37.0497Z" fill="white"/>
</svg>
